<svg width="60" height="60" viewBox="0 0 60 60" fill="none" xmlns="http://www.w3.org/2000/svg">
<path d="M30 5V55M55 30H5M40 7.5L52.5 20M52.5 7.5L40 20M20 46.25C20 47.9076 19.3415 49.4973 18.1694 50.6694C16.9973 51.8415 15.4076 52.5 13.75 52.5C12.0924 52.5 10.5027 51.8415 9.33058 50.6694C8.15848 49.4973 7.5 47.9076 7.5 46.25C7.5 44.5924 8.15848 43.0027 9.33058 41.8306C10.5027 40.6585 12.0924 40 13.75 40C15.4076 40 16.9973 40.6585 18.1694 41.8306C19.3415 43.0027 20 44.5924 20 46.25Z" stroke="white" stroke-width="3.75" stroke-linecap="round" stroke-linejoin="round"/>
</svg>
