<svg width="60" height="60" viewBox="0 0 60 60" fill="none" xmlns="http://www.w3.org/2000/svg">
<mask id="mask0_433_25" style="mask-type:luminance" maskUnits="userSpaceOnUse" x="2" y="2" width="56" height="56">
<path d="M30 55C43.8075 55 55 43.8075 55 30C55 16.1925 43.8075 5 30 5C16.1925 5 5 16.1925 5 30C5 43.8075 16.1925 55 30 55Z" fill="white" stroke="white" stroke-width="5" stroke-linejoin="round"/>
<path d="M30 22.5C30.9946 22.5 31.9484 22.1049 32.6517 21.4017C33.3549 20.6984 33.75 19.7446 33.75 18.75C33.75 17.7554 33.3549 16.8016 32.6517 16.0983C31.9484 15.3951 30.9946 15 30 15C29.0054 15 28.0516 15.3951 27.3483 16.0983C26.6451 16.8016 26.25 17.7554 26.25 18.75C26.25 19.7446 26.6451 20.6984 27.3483 21.4017C28.0516 22.1049 29.0054 22.5 30 22.5ZM30 45C30.9946 45 31.9484 44.6049 32.6517 43.9016C33.3549 43.1984 33.75 42.2446 33.75 41.25C33.75 40.2554 33.3549 39.3016 32.6517 38.5983C31.9484 37.8951 30.9946 37.5 30 37.5C29.0054 37.5 28.0516 37.8951 27.3483 38.5983C26.6451 39.3016 26.25 40.2554 26.25 41.25C26.25 42.2446 26.6451 43.1984 27.3483 43.9016C28.0516 44.6049 29.0054 45 30 45ZM18.75 33.75C19.7446 33.75 20.6984 33.3549 21.4017 32.6517C22.1049 31.9484 22.5 30.9946 22.5 30C22.5 29.0054 22.1049 28.0516 21.4017 27.3483C20.6984 26.6451 19.7446 26.25 18.75 26.25C17.7554 26.25 16.8016 26.6451 16.0983 27.3483C15.3951 28.0516 15 29.0054 15 30C15 30.9946 15.3951 31.9484 16.0983 32.6517C16.8016 33.3549 17.7554 33.75 18.75 33.75ZM41.25 33.75C42.2446 33.75 43.1984 33.3549 43.9016 32.6517C44.6049 31.9484 45 30.9946 45 30C45 29.0054 44.6049 28.0516 43.9016 27.3483C43.1984 26.6451 42.2446 26.25 41.25 26.25C40.2554 26.25 39.3016 26.6451 38.5983 27.3483C37.8951 28.0516 37.5 29.0054 37.5 30C37.5 30.9946 37.8951 31.9484 38.5983 32.6517C39.3016 33.3549 40.2554 33.75 41.25 33.75Z" fill="black" stroke="black" stroke-width="5" stroke-linejoin="round"/>
<path d="M30 55H55" stroke="white" stroke-width="5" stroke-linecap="round"/>
</mask>
<g mask="url(#mask0_433_25)">
<path d="M0 0H60V60H0V0Z" fill="white"/>
</g>
</svg>
